<svg width="414" height="313" viewBox="0 0 414 313" fill="none" xmlns="http://www.w3.org/2000/svg">
<path d="M0 37L209 0.5L414 37V312H0V37Z" fill="#FE0100"/>
<path d="M19.772 304.946C13.544 304.946 9.08 299.258 9.08 291.086C9.08 282.77 13.796 276.542 20.096 276.542C24.416 276.542 27.908 279.422 29.6 284.282L25.136 286.118C23.948 283.274 22.328 282.014 20.024 282.014C16.28 282.014 13.616 285.794 13.616 290.942C13.616 295.982 16.136 299.51 19.736 299.51C22.364 299.51 24.416 297.818 25.388 294.758L29.708 296.018C28.052 301.67 24.524 304.946 19.772 304.946ZM32.757 304.262V277.19H47.877V282.554H37.077V287.666H46.905V293.03H37.077V298.862H48.129V304.262H32.757ZM51.1438 304.262V277.19H55.1758L64.0318 294.29V277.19H68.3517V304.262H64.3918L55.4998 287.126V304.262H51.1438ZM76.9963 304.262V282.554H70.4443V277.19H87.9043V282.554H81.3163V304.262H76.9963ZM89.9914 304.262V277.19H98.9914C103.311 277.19 105.939 280.646 105.939 284.966C105.939 287.99 104.679 290.474 102.231 291.734C104.967 293.75 104.031 298.358 106.479 304.262H101.655C100.215 301.562 100.215 292.598 96.5434 292.598H94.3114V304.262H89.9914ZM94.3114 287.234H98.9194C100.503 287.234 101.547 286.262 101.547 284.822C101.547 283.49 100.575 282.554 98.9194 282.554H94.3114V287.234ZM107.811 304.262L116.271 277.19H121.059L129.447 304.262H124.947L122.931 297.53H114.435L112.347 304.262H107.811ZM116.055 292.202H121.311L118.683 283.706L116.055 292.202ZM131.405 304.262V277.19H135.761V298.862H146.525V304.262H131.405ZM149.414 304.262V277.19H153.806V304.262H149.414ZM157.341 304.262V301.094L167.133 282.554H157.521V277.19H173.613V280.574L163.929 298.862H173.613V304.262H157.341ZM176.827 304.262V277.19H191.947V282.554H181.147V287.666H190.975V293.03H181.147V298.862H192.199V304.262H176.827ZM195.214 304.262V277.19H202.846C209.578 277.19 213.142 282.374 213.142 290.582C213.142 298.646 209.578 304.262 202.846 304.262H195.214ZM199.534 298.898H202.378C206.446 298.898 208.75 296.09 208.75 290.582C208.75 285.074 206.446 282.554 202.378 282.554H199.534V298.898ZM231.798 304.946C226.866 304.946 223.698 301.994 222.942 296.558L227.19 295.334C227.73 298.322 229.134 299.654 231.654 299.654C234.03 299.654 235.686 298.43 235.686 296.774C235.686 295.226 234.21 294.038 230.898 292.778C225.678 290.87 223.23 288.062 223.23 283.958C223.23 279.386 226.29 276.542 231.294 276.542C235.866 276.542 238.494 278.954 239.574 283.85L235.038 285.074C234.462 282.878 233.274 281.906 231.042 281.906C228.99 281.906 227.694 282.698 227.694 284.138C227.694 285.434 228.738 286.298 232.302 287.702C237.594 289.79 240.078 292.742 240.078 296.918C240.078 301.742 236.802 304.946 231.798 304.946ZM241.581 304.262L250.041 277.19H254.829L263.217 304.262H258.717L256.701 297.53H248.205L246.117 304.262H241.581ZM249.825 292.202H255.081L252.453 283.706L249.825 292.202ZM265.175 304.262V277.19H269.531V298.862H280.295V304.262H265.175ZM282.823 304.262V277.19H297.943V282.554H287.143V287.666H296.971V293.03H287.143V298.862H298.195V304.262H282.823ZM309.634 304.946C304.702 304.946 301.534 301.994 300.778 296.558L305.026 295.334C305.566 298.322 306.97 299.654 309.49 299.654C311.866 299.654 313.522 298.43 313.522 296.774C313.522 295.226 312.046 294.038 308.734 292.778C303.514 290.87 301.066 288.062 301.066 283.958C301.066 279.386 304.126 276.542 309.13 276.542C313.702 276.542 316.33 278.954 317.41 283.85L312.874 285.074C312.298 282.878 311.11 281.906 308.878 281.906C306.826 281.906 305.53 282.698 305.53 284.138C305.53 285.434 306.574 286.298 310.138 287.702C315.43 289.79 317.914 292.742 317.914 296.918C317.914 301.742 314.638 304.946 309.634 304.946ZM326.624 304.262L335.084 277.19H339.872L348.26 304.262H343.76L341.744 297.53H333.248L331.16 304.262H326.624ZM334.868 292.202H340.124L337.496 283.706L334.868 292.202ZM350.218 304.262V277.19H359.002C363.43 277.19 365.95 280.934 365.95 285.434C365.95 290.006 363.322 293.75 359.002 293.75H354.574V304.262H350.218ZM354.574 288.386H359.002C360.514 288.386 361.558 287.234 361.558 285.434C361.558 283.67 360.55 282.554 359.002 282.554H354.574V288.386ZM368.675 304.262V277.19H377.459C381.887 277.19 384.407 280.934 384.407 285.434C384.407 290.006 381.779 293.75 377.459 293.75H373.031V304.262H368.675ZM373.031 288.386H377.459C378.971 288.386 380.015 287.234 380.015 285.434C380.015 283.67 379.007 282.554 377.459 282.554H373.031V288.386Z" fill="black"/>
<path d="M66.5814 269.597C47.732 269.597 44.2177 260.652 44.2177 239.566V189.088H57.6359V205.382C57.6359 218.8 57.9554 221.995 66.5814 221.995C75.2074 221.995 75.2074 217.841 75.2074 205.382C75.2074 165.127 44.2177 149.792 44.2177 109.537V72.7968C44.2177 51.3915 47.732 42.7655 66.5814 42.7655C85.1113 42.7655 88.6256 51.3915 88.6256 72.7968V121.997H75.2074V107.94C75.2074 94.5215 75.2074 90.3683 66.5814 90.3683C57.9554 90.3683 57.6359 95.48 57.6359 107.94C57.6359 148.194 88.6256 160.335 88.6256 203.784V239.566C88.6256 260.652 85.4308 269.597 66.5814 269.597ZM117.132 269.597C98.2824 269.597 94.7681 260.652 94.7681 239.566V44.363H107.867V205.382C107.867 218.8 108.506 221.995 117.132 221.995C125.758 221.995 126.077 218.8 126.077 205.382V44.363H139.176V239.566C139.176 260.652 135.662 269.597 117.132 269.597ZM145.623 268V44.363H166.709L180.766 205.701H181.725L195.462 44.363H216.548V268H203.449V106.662H202.491L190.031 268H172.14L159.68 106.662H158.722V268H145.623ZM245.361 269.597C226.512 269.597 222.998 260.652 222.998 239.566V72.7968C222.998 51.3915 226.512 42.7655 245.361 42.7655C264.211 42.7655 267.405 51.3915 267.405 72.7968V239.566C267.405 260.652 264.211 269.597 245.361 269.597ZM236.096 205.382C236.096 218.8 236.735 221.995 245.361 221.995C253.987 221.995 254.307 218.8 254.307 205.382V107.94C254.307 94.5215 253.987 90.3683 245.361 90.3683C236.735 90.3683 236.096 94.5215 236.096 107.94V205.382Z" fill="black"/>
<path d="M306.648 48L309.742 48.4731C313 49.1937 315.889 50.8428 317.007 54.4947C317.812 57.1253 317.683 60.083 317.076 62.7445C330.356 63.253 343.185 69.1243 351.637 80.522C357.551 88.4934 360.19 97.2782 363.228 106.832C366.068 115.763 368.711 124.773 371.487 133.726C371.724 135.132 370.541 136.649 369.697 137.608C366.378 141.375 361.759 143.391 357.145 144.399C355.978 144.655 354.763 144.96 353.572 144.814C352.317 146.543 350.632 147.803 349.127 149.218C349.252 149.218 349.372 149.249 349.485 149.302C355.053 152.03 358.589 157.203 362.837 161.579C366.052 164.891 370.256 167.269 374.424 168.742V166.991C374.424 166.31 375.079 164.984 375.578 164.546C377.256 163.083 379.195 163.812 380.293 165.629L381.178 167.256C381.307 165.771 381.404 164.329 381.935 162.941C382.619 161.146 384.031 159.696 385.913 160.2C388.432 160.872 388.508 164.316 388.323 166.624L389.096 165.408C390.323 163.759 392.382 162.601 394.116 164.13C396.1 165.881 395.178 169.392 394.406 171.611C395.85 170.829 397.801 170.285 399.044 171.77C400.706 173.76 399 177.257 397.962 179.18C396.611 181.682 394.446 185.131 392.805 187.412C390.419 190.728 388.544 191.665 384.702 192.09C380.86 192.514 377.179 191.241 373.965 189.03C373.752 188.991 373.539 189.123 373.317 189.128C366.418 189.221 359.438 188.8 352.796 186.683C352.603 190.87 352.418 195.079 351.802 199.226C351.191 203.359 350.249 207.586 348.17 211.127C353.802 215.823 356.827 223.573 358.271 231.014C359.518 237.451 359.08 243.592 359.366 250.078C359.41 251.072 359.607 254.875 360.142 255.485C360.339 255.71 360.878 256.037 361.148 256.289C363.863 258.863 369.99 265.419 370.276 269.389C370.393 271.007 370.067 272.652 368.695 273.497C368.293 273.744 367.48 273.908 367.283 274.067C367.154 274.173 366.933 274.734 366.748 274.964C365.798 276.158 364.974 275.804 363.871 276.154C363.771 276.185 363.208 276.773 362.938 276.932C362.194 277.369 361.409 277.502 360.572 277.405C360.311 277.374 359.631 277.087 359.522 277.109C359.41 277.135 358.991 277.595 358.814 277.705C358.062 278.183 357.314 278.386 356.465 278.572H356.175C355.725 278.422 355.274 278.386 354.824 278.201C354.091 277.9 353.363 277.069 352.768 276.852C352.39 276.715 351.923 276.706 351.488 276.56C349.304 275.84 348.375 274.098 346.665 272.842C344.36 271.149 341.656 270.959 339.761 268.439C337.983 266.073 338.015 263.138 339.134 260.428C334.636 255.507 330.163 249.357 329.8 242.089C325.669 240.453 321.602 238.499 317.888 235.921C315.921 234.555 313.922 232.968 312.377 231.049C309.879 231.84 307.32 232.499 304.741 232.928C298.723 233.932 292.262 234.104 286.782 230.841C286.44 230.638 285.479 229.789 285.177 229.882C285.081 229.913 284.292 230.656 284.075 230.801C282.699 231.748 281.126 232.442 279.581 232.972C279.279 233.074 277.932 233.344 277.871 233.543C278.036 235.068 278.197 236.659 278.157 238.202C278.133 239.135 277.69 241.549 277.783 242.208C277.807 242.38 278.25 243.083 278.362 243.38C280.165 248.093 277.336 251.943 273.056 252.655C272.01 252.828 270.924 252.668 269.938 252.836C267.223 253.301 265.646 255.75 262.359 254.49C262.141 254.406 261.558 254.004 261.494 253.999C261.325 253.982 260.468 254.335 260.13 254.371C259.478 254.437 258.758 254.318 258.163 254.013C257.954 253.906 257.507 253.473 257.427 253.455C257.282 253.425 256.32 253.73 255.99 253.725C255.335 253.721 254.514 253.385 253.947 253.022C253.062 252.456 253.391 252.54 252.345 252.235C251.396 251.957 250.595 251.386 250.161 250.392C248.399 246.36 252.506 241.921 255.845 241.014C253.512 234.599 252.128 227.99 253.283 221.066C254.912 211.3 261.49 204.014 268.574 198.501C266.828 184.247 270.654 169.816 276.894 157.45C276.906 157.353 276.85 157.304 276.797 157.242C276.616 157.03 275.611 156.469 275.297 156.239C267.299 150.323 260.633 142.993 255.359 134.115C254.779 133.143 254.285 131.989 253.701 131.056C253.186 130.229 252.712 130.043 251.919 129.619C249.63 128.39 247.329 127.497 245.193 125.87C244.219 125.127 243.354 124.331 243 123.027V121.754C243.656 118.517 246.77 118.862 249.083 119.525C248.443 118.486 247.671 117.558 247.075 116.484C245.872 114.317 243.668 109.445 246.476 107.801C248.467 106.633 250.012 108.327 250.937 110.122C251.416 111.05 251.658 112.505 252.659 112.845C252.522 110.157 250.768 105.25 253.19 103.295C254.478 102.256 256.002 102.584 256.948 103.941C258.291 105.868 257.913 108.442 258.597 110.617C258.774 110.391 258.782 109.993 258.827 109.702C259.148 107.447 259.004 104.091 261.816 103.914C266.462 90.9338 272.408 77.5864 283.85 70.402C280.684 66.9314 277.167 61.4138 279.778 56.4311C283.13 50.0382 295.428 48.4333 301.491 48.1105L301.724 48H306.648ZM294.901 146.22C295.428 146.782 296.768 147.604 297.447 148.037C308.619 155.226 323.175 156.066 335.618 152.887C345.136 150.456 355.057 144.894 355.793 132.829C356.075 128.186 354.16 124.035 354.445 119.888C354.57 118.04 355.198 116.223 355.31 114.366C355.588 109.927 355.395 104.608 354.156 100.36C354.039 99.9618 353.584 98.4586 353.387 98.2332C352.993 97.7822 352.265 98.6399 351.834 98.8742C344.979 102.645 333.168 103.477 325.52 103.698C317.208 103.936 305.429 103.618 297.476 100.996C297.118 100.877 295.315 100.006 295.154 100.139C294.233 103.092 293.09 105.749 292.427 108.813C290.644 117.01 290.355 127.134 291.509 135.464C291.908 138.333 293.002 144.182 294.905 146.216L294.901 146.22ZM258.758 113.044C255.753 112.699 256.529 108.309 255.717 106.041C254.904 103.773 253.906 105.126 253.926 106.943C253.947 108.95 254.896 111.399 254.703 113.305C254.482 115.542 251.919 115.423 250.696 114.101C249.783 113.115 249.051 110.104 248.037 109.702C247.707 109.569 247.244 109.71 247.176 110.126C246.906 111.696 248.467 114.782 249.276 116.09C249.871 117.058 251.814 119.234 251.903 120.206C251.959 120.821 251.855 121.192 251.412 121.577C250.121 122.713 247.373 120.874 245.623 121.369C245.044 121.533 244.855 122.32 245.136 122.863C245.563 123.677 248.149 125.242 249.002 125.724C250.793 126.745 253.995 127.758 255.166 129.455C256.002 130.667 256.574 132.307 257.451 133.523L256.871 131.082C255.765 125.025 257.117 118.818 258.754 113.044H258.758ZM284.441 148.59C279.565 147.662 274.649 146.335 270.006 144.452C266.905 143.192 264.479 141.967 261.896 139.677C261.8 139.593 261.345 139.177 261.273 139.253C265.987 145.597 271.632 151.115 277.972 155.443L278.125 155.385C279.038 153.966 280.092 152.671 281.211 151.446L284.445 148.586L284.441 148.59ZM324.896 156.76C314.38 157.428 303.478 155.054 294.611 148.714C294.181 148.97 293.718 149.187 293.231 149.284C292.853 149.364 291.896 149.315 291.634 149.545C291.457 149.7 290.842 150.752 290.677 151.039C286.308 158.551 290.902 162.3 297.262 164.157C305.936 166.69 314.557 164.268 321.956 159.095C322.973 158.383 323.979 157.614 324.896 156.76ZM289.269 149.227C288.822 149.315 288.388 149.112 287.965 149.112C287.104 149.112 284.566 151.199 283.813 151.884C280.076 155.293 278.069 159.387 276.053 164.153C271.157 175.718 268.502 189.632 271.41 202.223C273.607 211.729 278.479 221.756 285.857 227.517C290.411 231.071 294.997 231.681 300.513 231.248C304.576 230.93 308.631 229.966 312.51 228.675C315.788 219.66 322.33 211.415 331.184 209.036C335.091 207.988 339.061 208.156 342.964 209.102C344.07 209.372 345.152 209.823 346.255 210.009C347.582 208.399 348.302 206.003 348.825 203.916C349.775 200.141 350.173 196.166 350.479 192.271C344.955 190.463 340.075 186.842 336.78 181.625C332.673 175.117 331.51 166.841 331.937 159.046C331.993 158.007 332.138 156.955 332.226 155.916L328.268 156.5C319.26 165.607 306.23 170.245 294.326 165.466C287.945 162.906 284.88 158.007 288.436 150.818C288.532 150.624 289.341 149.311 289.257 149.231L289.269 149.227ZM374.697 171.213C370.059 169.626 365.505 167.199 361.872 163.604C357.507 159.285 354.82 155.027 349.384 151.756C348.882 151.455 347.844 151.079 347.486 150.761C347.373 150.664 338.788 154.413 334.27 155.5C333.429 163.551 333.836 172.203 337.79 179.246C340.152 183.451 343.696 186.82 347.807 188.823C348.186 189.008 350.491 190.061 350.672 189.866L350.756 186.006C349.541 185.259 347.908 184.76 346.778 183.8C346.198 183.309 345.82 182.545 346.496 181.908C347.268 181.178 347.872 182.01 348.544 182.39C354.393 185.71 361.759 186.692 368.289 186.899C369.109 186.926 369.934 186.873 370.755 186.895L369.306 185.679C366.108 182.284 368.091 179.074 372.251 179.366C373.543 179.459 374.762 180.078 376.053 179.985C376.504 177.036 375.091 174.109 374.697 171.213ZM386.625 174.021C386.44 173.813 386.356 173.424 386.312 173.145C386.179 172.287 386.111 170.758 386.102 169.874C386.086 167.871 386.65 165.271 386.199 163.401C385.925 162.278 385.077 161.92 384.328 162.817C382.88 164.555 383.133 170.859 382.82 173.362C382.707 174.242 382.112 174.728 381.323 174.388C380.663 174.1 380.579 172.349 380.386 171.598C380.076 170.386 378.962 166.438 377.811 166.04C377.163 165.815 376.58 166.469 376.479 167.137C375.88 171.054 379.279 177.832 377.891 180.891C376.765 183.367 373.985 181.731 372.159 181.594C369.833 181.422 368.856 182.257 370.855 184.194C373.756 187.006 379.557 190.114 383.459 189.981C387.583 189.839 389.421 188.823 391.791 185.237C393.179 183.137 397.286 176.925 397.657 174.706C398.091 172.084 396.039 173.132 394.869 173.976C394.205 174.458 393.368 175.581 392.841 175.886C392.02 176.364 391.216 175.639 391.344 174.67C391.787 173.141 392.378 171.642 392.797 170.108C393.115 168.945 394.06 164.652 391.702 165.828C389.558 166.898 389.019 171.682 388.178 173.839C387.824 174.445 387.08 174.533 386.621 174.021H386.625ZM260.206 252.151V250.507C260.206 249.821 261.2 248.159 261.699 247.69C262.459 246.983 264.487 246.028 264.64 247.761C264.728 248.756 264 248.787 263.449 249.087C262.391 249.662 261.538 251.678 262.966 252.355C265.114 253.371 267.689 250.887 269.833 250.591C270.529 250.493 271.242 250.617 271.938 250.568C276.238 250.268 278.33 246.908 275.751 242.761C276.302 238.132 276.351 233.436 274.705 229.055C274.705 228.206 275.301 227.689 276.065 227.884C276.829 228.078 277.167 230.386 277.437 231.151L277.622 231.252C279.718 230.682 281.858 229.935 283.568 228.445C275.864 221.628 271.217 211.401 269.085 200.91C262.604 205.915 256.517 212.962 255.21 221.897C254.397 227.468 255.238 232.216 256.823 237.464C257.125 238.459 258.279 241.218 258.139 242.08C257.97 243.119 257 242.933 256.3 243.145C254.256 243.76 251.303 246.461 251.871 249.061C251.899 249.185 252.217 250.038 252.382 249.821C252.217 248.579 253.677 245.975 254.916 246.236C255.194 246.293 255.568 246.62 255.64 246.93C255.95 248.256 254.872 248.216 254.53 249.158C253.999 250.621 254.952 251.4 256.183 251.51C256.465 251.422 256.232 250.714 256.24 250.405C256.26 249.476 256.767 248.146 257.31 247.438C257.805 246.793 258.939 245.851 259.551 246.881C260.243 248.048 259.064 248.468 258.641 249.22C257.797 250.723 258.501 252.461 260.206 252.16V252.151ZM367.476 271.675C368.317 271.374 368.333 270.203 368.248 269.394C367.967 266.719 362.721 260.764 360.814 258.889C358.907 257.014 358.102 257.182 357.64 253.889C356.891 248.566 357.422 242.491 357.044 237.035C356.501 229.135 353.387 218.458 347.53 213.431C346.251 212.334 345.49 212.109 343.933 211.653C340.53 210.654 337.058 210.248 333.55 210.791C324.313 212.224 317.389 220.814 314.223 229.984C318.174 234.192 323.368 236.942 328.441 239.184C329.052 239.454 331.377 240.223 331.651 240.643C331.989 241.16 331.8 242.398 331.856 243.07C332.351 249.295 337.5 255.502 341.326 259.72C341.709 260.565 340.876 261.515 340.63 262.395C339.017 268.138 344.424 268.669 347.478 270.786C349.051 271.878 350.374 273.886 352.14 274.469C352.551 274.606 353.009 274.584 353.379 274.699C354.719 275.124 355.25 276.759 357.024 276.167C358.279 275.747 359.072 274.615 358.416 273.196C357.962 272.214 356.352 271.931 356.827 270.645C357.302 269.358 358.541 270.185 359.168 270.778C360.359 271.896 360.846 273.488 360.617 275.181C362.898 275.773 363.151 272.418 361.675 271.313C361.441 271.136 361.164 271.096 360.955 270.937C359.925 270.15 360.637 268.288 362.355 269.186C363.928 270.008 364.744 271.936 364.579 273.797C365.967 273.55 365.601 271.538 365.078 270.539C364.809 270.022 364.024 269.358 363.94 268.921C363.779 268.072 364.535 267.36 365.279 267.665C366.305 268.085 367.524 270.45 367.476 271.675Z" fill="black"/>
<path d="M289.268 149.228C289.348 149.307 288.54 150.625 288.447 150.815C284.891 158.004 287.956 162.902 294.337 165.462C306.241 170.237 319.267 165.604 328.279 156.496L332.237 155.913C332.153 156.952 332.008 158.004 331.948 159.043C331.521 166.837 332.684 175.118 336.792 181.622C340.086 186.839 344.966 190.464 350.49 192.268C350.184 196.163 349.786 200.142 348.836 203.913C348.309 206 347.589 208.396 346.266 210.005C345.163 209.82 344.081 209.369 342.975 209.099C339.069 208.153 335.098 207.985 331.196 209.033C322.341 211.411 315.799 219.657 312.521 228.671C308.643 229.962 304.583 230.926 300.524 231.245C295.009 231.673 290.418 231.068 285.868 227.513C278.494 221.752 273.618 211.721 271.422 202.22C268.513 189.628 271.164 175.715 276.064 164.149C278.08 159.383 280.087 155.289 283.825 151.88C284.573 151.195 287.115 149.108 287.976 149.108C288.395 149.108 288.833 149.312 289.28 149.223L289.268 149.228Z" fill="black"/>
<path d="M294.899 146.221C292.992 144.192 291.902 138.343 291.504 135.469C290.349 127.139 290.639 117.019 292.421 108.818C293.089 105.75 294.227 103.097 295.149 100.144C295.309 100.011 297.112 100.882 297.47 101.002C305.423 103.623 317.203 103.942 325.514 103.703C333.158 103.482 344.973 102.646 351.829 98.8795C352.255 98.6451 352.987 97.7874 353.382 98.2384C353.579 98.4639 354.033 99.9671 354.15 100.365C355.389 104.618 355.582 109.932 355.305 114.371C355.188 116.228 354.564 118.045 354.44 119.893C354.158 124.045 356.073 128.196 355.787 132.834C355.051 144.899 345.13 150.461 335.612 152.893C323.169 156.072 308.618 155.231 297.442 148.043C296.762 147.605 295.422 146.783 294.895 146.226L294.899 146.221ZM347.85 104.264C347.033 104.419 345.259 105.586 344.503 106.104C341.602 108.102 338.605 111.312 335.318 112.457C334.477 112.749 333.395 112.567 333.295 113.841C333.242 114.513 333.769 115.773 334.409 115.905C335.379 116.1 337.575 114.866 338.476 114.336C341.956 112.293 344.37 109.225 347.556 107.125C348.345 106.603 350.324 106.086 349.278 104.768C348.892 104.278 348.421 104.158 347.85 104.269V104.264ZM311.599 109.72C311.562 109.702 311.526 109.512 311.41 109.459C309.293 108.473 305.387 106.448 303.166 106.833C302.543 106.944 301.501 107.483 301.626 108.319C301.758 109.198 304.128 109.331 304.796 109.508C307.423 110.193 310.335 112.262 312.858 113.487C314.809 114.437 319.001 116.436 320.996 116.639C323.66 116.909 323.221 113.182 321.443 112.956C319.975 112.771 318.82 112.377 317.388 111.904C315.501 111.281 313.405 110.569 311.603 109.72H311.599ZM343.819 117.714C344.02 117.727 344.201 117.722 344.398 117.661C345.75 117.232 347.082 116.409 348.474 115.985C349.676 115.618 350.759 115.79 351.523 114.455C351.889 113.814 351.615 113.239 351.048 112.89C350.57 112.594 350.256 112.749 349.781 112.859C346.808 113.544 339.04 116.352 336.602 118.111C335.411 118.974 333.653 121.418 336.284 121.423C336.763 126.653 342.21 127.17 343.96 122.373C344.567 120.711 344.273 119.349 343.815 117.709L343.819 117.714ZM314.757 122.329C314.833 121.582 314.7 120.702 314.757 119.942C315.006 120.004 315.264 120.048 315.509 120.123C316.752 120.499 319.287 121.79 320.409 121.75C320.57 121.746 320.727 121.724 320.876 121.644C321.704 120.114 320.59 119.562 319.488 119.04C314.946 116.887 309.209 116.21 304.409 114.707C303.488 114.42 300.592 112.753 300.66 114.999C300.716 116.82 303.231 117.081 304.353 117.422C305.307 117.709 306.216 118.218 307.23 118.24C305.214 121.56 307.636 127.281 311.595 126.273C313.091 125.893 314.588 124.005 314.761 122.325L314.757 122.329ZM330.185 128.886C329.493 128.965 327.9 129.288 327.9 130.287C327.9 130.473 328.113 131.043 328.23 131.185C328.994 132.113 331.331 130.831 332.132 131.879C331.625 132.511 330.969 133.21 331.36 134.107C333.041 134.779 335.125 132.967 334.675 130.995C334.224 129.023 331.718 128.709 330.185 128.886ZM335.009 139.063C334.361 139.165 332.752 140.368 331.967 140.717C329.473 141.813 326.431 142.021 323.957 140.761C323.209 140.381 320.988 138.52 321.326 140.894C321.612 142.896 325.619 144.019 327.16 144.139C329.211 144.302 334.972 142.91 335.918 140.704C336.296 139.819 335.97 138.913 335.009 139.059V139.063Z" fill="#FFDCE7"/>
<path d="M367.473 271.675C367.522 270.45 366.303 268.085 365.277 267.665C364.532 267.36 363.776 268.072 363.937 268.921C364.022 269.358 364.806 270.026 365.076 270.539C365.595 271.538 365.965 273.55 364.577 273.797C364.746 271.931 363.929 270.008 362.352 269.186C360.634 268.288 359.922 270.15 360.952 270.937C361.161 271.096 361.439 271.14 361.672 271.312C363.149 272.418 362.899 275.773 360.614 275.181C360.843 273.488 360.361 271.896 359.166 270.778C358.538 270.19 357.291 269.389 356.824 270.645C356.358 271.9 357.959 272.214 358.413 273.196C359.069 274.615 358.281 275.747 357.022 276.167C355.247 276.759 354.712 275.124 353.377 274.699C353.007 274.584 352.548 274.606 352.138 274.469C350.375 273.886 349.048 271.878 347.475 270.786C344.421 268.669 339.015 268.134 340.628 262.395C340.873 261.515 341.706 260.565 341.324 259.72C337.498 255.502 332.348 249.3 331.854 243.07C331.801 242.394 331.986 241.16 331.648 240.643C331.375 240.223 329.045 239.454 328.438 239.184C323.369 236.942 318.175 234.192 314.221 229.984C317.383 220.814 324.31 212.224 333.547 210.791C337.059 210.247 340.527 210.654 343.931 211.653C345.484 212.109 346.248 212.334 347.527 213.431C353.385 218.458 356.499 229.139 357.042 237.035C357.416 242.491 356.885 248.566 357.637 253.889C358.1 257.182 358.816 256.926 360.811 258.889C362.807 260.852 367.964 266.719 368.246 269.394C368.33 270.203 368.314 271.374 367.473 271.675ZM343.307 240.608C342.494 240.811 342.607 241.894 342.965 242.531C343.846 244.105 346.425 245.542 348.094 245.126C349.064 244.887 349.12 243.114 347.913 242.929C346.779 242.752 346.256 242.92 345.266 242.018C344.554 241.368 344.458 240.316 343.307 240.608Z" fill="#FFDCE7"/>
<path d="M374.695 171.214C375.09 174.11 376.506 177.032 376.051 179.985C374.76 180.074 373.541 179.455 372.25 179.366C368.09 179.075 366.106 182.284 369.305 185.68L370.753 186.896C369.932 186.874 369.108 186.927 368.287 186.9C361.758 186.692 354.395 185.706 348.542 182.391C347.87 182.01 347.267 181.179 346.494 181.909C345.818 182.545 346.197 183.31 346.776 183.801C347.906 184.76 349.54 185.26 350.755 186.007L350.67 189.867C350.489 190.061 348.184 189.009 347.806 188.823C343.694 186.816 340.15 183.452 337.788 179.247C333.834 172.204 333.427 163.556 334.268 155.501C338.786 154.418 347.375 150.664 347.484 150.762C347.842 151.08 348.88 151.451 349.383 151.756C354.814 155.032 357.501 159.286 361.87 163.605C365.499 167.195 370.057 169.627 374.695 171.214Z" fill="#FFDCE7"/>
<path d="M260.206 252.152C258.5 252.453 257.8 250.715 258.641 249.212C259.063 248.461 260.242 248.041 259.55 246.874C258.938 245.843 257.804 246.785 257.309 247.431C256.766 248.138 256.259 249.473 256.239 250.397C256.231 250.707 256.468 251.414 256.183 251.502C254.952 251.392 254.002 250.614 254.529 249.15C254.871 248.209 255.949 248.244 255.639 246.922C255.567 246.617 255.193 246.285 254.915 246.228C253.676 245.967 252.216 248.571 252.381 249.814C252.216 250.03 251.894 249.177 251.87 249.053C251.303 246.453 254.256 243.748 256.299 243.138C256.999 242.93 257.969 243.111 258.138 242.072C258.279 241.21 257.124 238.451 256.822 237.456C255.237 232.204 254.396 227.456 255.209 221.89C256.516 212.954 262.599 205.907 269.084 200.902C271.217 211.394 275.863 221.62 283.567 228.437C281.861 229.932 279.717 230.674 277.621 231.245L277.436 231.143C277.167 230.378 276.861 228.075 276.064 227.876C275.268 227.677 274.704 228.199 274.704 229.047C276.35 233.429 276.302 238.124 275.75 242.753C278.329 246.9 276.233 250.26 271.937 250.561C271.241 250.609 270.529 250.486 269.833 250.583C267.684 250.879 265.11 253.364 262.965 252.347C261.537 251.67 262.39 249.654 263.448 249.08C263.999 248.779 264.727 248.752 264.639 247.753C264.486 246.02 262.458 246.98 261.698 247.683C261.195 248.147 260.206 249.814 260.206 250.499V252.144V252.152Z" fill="#FFDCE7"/>
<path d="M386.626 174.02C387.084 174.533 387.829 174.44 388.183 173.839C389.024 171.681 389.563 166.898 391.707 165.828C394.064 164.647 393.115 168.945 392.801 170.107C392.383 171.641 391.791 173.14 391.349 174.67C391.216 175.634 392.021 176.359 392.845 175.886C393.372 175.581 394.205 174.453 394.873 173.976C396.04 173.131 398.095 172.084 397.661 174.705C397.291 176.925 393.183 183.136 391.795 185.236C389.426 188.822 387.587 189.843 383.464 189.98C379.561 190.113 373.76 187.005 370.86 184.193C368.86 182.257 369.838 181.421 372.163 181.593C373.99 181.731 376.773 183.366 377.896 180.89C379.284 177.831 375.884 171.053 376.484 167.136C376.584 166.469 377.168 165.819 377.815 166.04C378.97 166.438 380.08 170.381 380.39 171.597C380.583 172.349 380.668 174.1 381.328 174.387C382.116 174.727 382.711 174.241 382.824 173.361C383.142 170.863 382.888 164.554 384.333 162.817C385.081 161.919 385.93 162.277 386.203 163.4C386.654 165.266 386.091 167.87 386.107 169.873C386.115 170.762 386.179 172.291 386.316 173.145C386.36 173.423 386.445 173.817 386.63 174.02H386.626Z" fill="#FFDCE7"/>
<path d="M324.896 156.76C323.974 157.614 322.969 158.383 321.955 159.095C314.56 164.267 305.935 166.686 297.262 164.157C290.901 162.3 286.311 158.551 290.676 151.039C290.841 150.752 291.456 149.7 291.633 149.545C291.895 149.315 292.852 149.364 293.23 149.284C293.717 149.183 294.18 148.966 294.61 148.714C303.477 155.054 314.379 157.428 324.896 156.76Z" fill="#FFDCE7"/>
<path d="M258.756 113.045C257.119 118.819 255.767 125.026 256.873 131.083L257.453 133.524C256.576 132.313 256.004 130.668 255.168 129.456C253.997 127.759 250.795 126.746 249.004 125.725C248.155 125.239 245.565 123.678 245.138 122.865C244.853 122.321 245.046 121.534 245.625 121.37C247.375 120.875 250.123 122.71 251.414 121.578C251.857 121.189 251.961 120.822 251.905 120.207C251.816 119.235 249.873 117.06 249.278 116.091C248.469 114.783 246.904 111.697 247.178 110.127C247.25 109.712 247.709 109.575 248.039 109.703C249.053 110.105 249.785 113.116 250.698 114.102C251.921 115.428 254.484 115.543 254.705 113.306C254.894 111.396 253.949 108.951 253.928 106.944C253.908 105.127 254.914 103.796 255.719 106.042C256.523 108.288 255.755 112.7 258.76 113.045H258.756Z" fill="#FFDCE7"/>
<path d="M284.439 148.59L281.205 151.451C280.086 152.675 279.032 153.971 278.119 155.39L277.966 155.447C271.626 151.119 265.982 145.601 261.267 139.257C261.343 139.182 261.798 139.598 261.89 139.682C264.473 141.972 266.899 143.196 270.001 144.456C274.643 146.34 279.559 147.662 284.435 148.595L284.439 148.59Z" fill="#FFDCE7"/>
<path d="M314.757 122.329C314.584 124.009 313.088 125.897 311.591 126.277C307.632 127.285 305.211 121.568 307.226 118.244C306.216 118.222 305.303 117.709 304.35 117.426C303.227 117.09 300.713 116.825 300.656 115.003C300.588 112.757 303.485 114.424 304.406 114.711C309.205 116.21 314.946 116.891 319.484 119.044C320.586 119.566 321.701 120.118 320.872 121.648C320.727 121.723 320.566 121.75 320.405 121.754C319.287 121.794 316.748 120.503 315.505 120.127C315.26 120.052 315.003 120.008 314.753 119.946C314.697 120.706 314.83 121.586 314.753 122.333L314.757 122.329Z" fill="black"/>
<path d="M343.819 117.713C344.274 119.358 344.567 120.715 343.964 122.377C342.214 127.174 336.767 126.653 336.288 121.427C333.661 121.427 335.419 118.978 336.606 118.115C339.044 116.351 346.808 113.544 349.785 112.863C350.26 112.753 350.574 112.598 351.053 112.894C351.62 113.243 351.893 113.818 351.527 114.459C350.763 115.794 349.681 115.622 348.478 115.989C347.086 116.413 345.754 117.236 344.402 117.664C344.205 117.726 344.024 117.731 343.823 117.717L343.819 117.713Z" fill="black"/>
<path d="M311.599 109.718C313.401 110.567 315.497 111.279 317.384 111.902C318.816 112.375 319.971 112.769 321.439 112.954C323.221 113.18 323.656 116.903 320.993 116.637C318.997 116.438 314.805 114.436 312.854 113.485C310.332 112.256 307.423 110.191 304.792 109.506C304.12 109.329 301.755 109.192 301.622 108.317C301.489 107.441 302.539 106.942 303.163 106.831C305.383 106.447 309.29 108.471 311.406 109.457C311.522 109.51 311.563 109.701 311.595 109.718H311.599Z" fill="black"/>
<path d="M347.85 104.263C348.426 104.157 348.892 104.277 349.279 104.763C350.32 106.085 348.345 106.602 347.557 107.119C344.37 109.224 341.957 112.288 338.477 114.33C337.576 114.861 335.379 116.094 334.409 115.9C333.77 115.772 333.239 114.512 333.295 113.835C333.396 112.562 334.478 112.743 335.319 112.451C338.605 111.306 341.607 108.096 344.503 106.098C345.256 105.581 347.03 104.414 347.85 104.259V104.263Z" fill="black"/>
<path d="M335.009 139.063C335.97 138.918 336.296 139.819 335.918 140.708C334.973 142.914 329.212 144.307 327.16 144.143C325.623 144.02 321.616 142.897 321.327 140.898C320.989 138.524 323.21 140.385 323.958 140.766C326.432 142.026 329.473 141.818 331.968 140.721C332.752 140.377 334.361 139.17 335.009 139.068V139.063Z" fill="black"/>
<path d="M330.185 128.885C331.722 128.713 334.221 129.014 334.675 130.994C335.13 132.975 333.042 134.779 331.36 134.107C330.97 133.205 331.626 132.506 332.133 131.878C331.332 130.831 328.995 132.113 328.23 131.184C328.114 131.043 327.9 130.477 327.9 130.287C327.9 129.288 329.493 128.965 330.185 128.885Z" fill="black"/>
<path d="M343.308 240.608C344.454 240.316 344.555 241.368 345.267 242.018C346.257 242.92 346.784 242.752 347.914 242.929C349.121 243.114 349.069 244.883 348.095 245.126C346.425 245.542 343.847 244.105 342.966 242.531C342.608 241.894 342.495 240.815 343.308 240.608Z" fill="black"/>
</svg>
